<?xml version="1.0" standalone="no"?>
<!DOCTYPE svg PUBLIC "-//W3C//DTD SVG 20010904//EN"
 "http://www.w3.org/TR/2001/REC-SVG-20010904/DTD/svg10.dtd">
<svg version="1.0" xmlns="http://www.w3.org/2000/svg"
 width="801.000000pt" height="801.000000pt" viewBox="0 0 801.000000 801.000000"
 preserveAspectRatio="xMidYMid meet">
<metadata>
Created by potrace 1.11, written by Peter Selinger 2001-2013
</metadata>
<g transform="translate(0.000000,801.000000) scale(0.100000,-0.100000)"
fill="#000000" stroke="none">
<path d="M3818 8005 c-2 -1 -48 -5 -103 -9 -96 -6 -214 -18 -300 -31 -99 -15
-223 -37 -250 -45 -16 -5 -43 -12 -60 -15 -54 -9 -69 -13 -195 -48 -387 -110
-776 -288 -1108 -509 -152 -100 -150 -99 -302 -221 -659 -527 -1130 -1243
-1355 -2058 -32 -114 -78 -321 -91 -409 -3 -19 -7 -46 -9 -60 -3 -14 -7 -50
-11 -80 -3 -30 -7 -65 -9 -78 -25 -157 -26 -720 -1 -872 3 -14 8 -52 11 -85
11 -87 21 -152 30 -185 2 -8 6 -31 9 -50 30 -192 128 -524 223 -754 229 -561
609 -1097 1043 -1475 35 -31 73 -64 84 -73 10 -10 25 -14 32 -10 12 7 155 138
317 292 49 47 96 89 104 93 14 9 66 -27 148 -105 22 -21 44 -38 49 -38 12 0
-123 -152 -303 -339 -45 -47 -81 -88 -81 -92 0 -9 217 -151 335 -219 137 -79
377 -193 550 -261 152 -59 437 -146 545 -165 14 -3 41 -9 60 -14 19 -5 53 -12
75 -15 38 -6 128 -21 170 -29 11 -2 49 -7 85 -11 36 -3 76 -8 90 -10 210 -30
664 -23 940 16 84 12 90 12 180 29 36 6 75 13 88 15 12 2 30 6 40 9 9 3 28 7
42 10 14 2 45 9 70 16 25 7 52 14 60 15 39 9 206 60 306 95 375 129 760 335
1089 584 44 33 82 63 85 66 3 3 19 16 35 29 117 89 368 334 495 480 152 178
330 425 424 591 20 36 41 72 46 80 46 73 213 430 236 505 2 6 17 48 35 95 67
180 146 481 175 664 3 21 8 48 10 60 12 59 33 255 40 376 16 253 0 653 -32
815 -2 11 -7 40 -10 65 -3 25 -8 54 -10 65 -8 37 -24 120 -29 148 -13 70 -78
305 -118 422 -119 351 -251 622 -465 950 -51 78 -221 301 -293 385 -73 85
-294 310 -379 385 -123 108 -170 145 -171 133 -4 -60 -19 -182 -25 -208 -3
-14 -7 -36 -10 -50 -9 -48 -46 -155 -69 -202 -78 -157 -268 -331 -459 -423
-99 -47 -160 -63 -220 -58 -170 13 -402 297 -492 599 -20 69 -26 112 -27 189
-1 178 29 301 167 679 20 54 36 100 36 102 0 6 -273 92 -390 123 -187 49 -416
91 -585 106 -38 4 -83 9 -100 12 -31 5 -491 13 -497 8z m925 -750 c14 -38 46
-124 70 -190 53 -140 209 -658 232 -770 63 -308 26 -545 -135 -844 -29 -54
-53 -86 -69 -92 -22 -9 -105 -5 -143 7 -9 3 -26 7 -39 9 -74 14 -193 61 -257
102 -105 66 -228 211 -296 349 -65 133 -97 263 -100 414 -9 424 248 836 679
1086 26 15 28 13 58 -71z m2180 -877 c18 -77 27 -308 15 -408 -13 -116 -17
-137 -38 -224 -62 -252 -204 -477 -393 -623 -112 -87 -297 -168 -427 -188 -78
-11 -233 -14 -300 -4 -126 18 -275 79 -381 156 -70 50 -82 73 -75 147 17 182
71 337 157 453 27 35 70 72 136 116 194 127 341 204 843 439 268 125 319 143
446 157 7 0 14 -9 17 -21z m-2828 -1043 c261 -269 485 -534 528 -625 30 -66
42 -145 54 -345 11 -209 11 -212 -30 -298 -20 -44 -37 -81 -37 -83 0 -3 -9
-25 -20 -50 -19 -40 -29 -49 -100 -83 -161 -79 -282 -103 -412 -81 -147 25
-249 89 -372 234 -99 118 -215 417 -249 646 -14 94 -16 361 -3 425 49 237 118
416 225 583 l41 62 152 -156 c84 -87 185 -189 223 -229z m1505 -774 c36 -7
110 -28 165 -47 180 -63 266 -78 485 -88 237 -11 385 -18 413 -19 35 -1 35
-14 -2 -126 -54 -165 -140 -302 -270 -431 -348 -345 -859 -495 -1261 -369
-261 82 -404 243 -394 444 6 115 24 165 107 290 44 66 98 137 121 158 113 103
254 174 401 200 38 7 170 0 235 -12z m-2398 -346 c301 -457 462 -728 488 -825
17 -62 14 -191 -6 -295 -4 -22 -16 -128 -18 -161 -1 -11 -37 -79 -81 -152 -78
-128 -81 -132 -137 -157 -376 -169 -723 -21 -857 365 -27 76 -30 89 -56 235
-8 48 -17 184 -17 265 0 395 133 728 399 998 l64 65 28 -44 c15 -24 102 -156
193 -294z m-967 -706 c20 -57 40 -113 45 -124 21 -45 141 -390 184 -530 26
-82 51 -164 57 -182 5 -18 12 -42 14 -53 2 -12 6 -29 9 -38 3 -9 8 -33 11 -52
3 -19 9 -48 13 -65 13 -48 5 -155 -16 -236 -30 -115 -112 -372 -123 -385 -20
-25 -215 -172 -236 -178 -90 -28 -248 -44 -328 -32 -61 8 -124 39 -183 91 -21
18 -112 147 -112 159 0 3 -11 29 -24 59 -30 64 -71 188 -80 237 -3 19 -9 46
-12 60 -12 52 -11 283 2 358 20 120 23 130 59 239 110 329 339 612 603 744 42
21 77 37 79 36 2 -2 19 -50 38 -108z m2275 -293 c14 -3 39 -8 55 -12 17 -3 84
-24 150 -45 186 -62 287 -75 638 -84 123 -4 232 -8 243 -10 10 -2 22 -4 26 -4
22 -2 -81 -213 -167 -341 -223 -333 -583 -564 -960 -616 -184 -25 -436 13
-613 93 -72 32 -154 111 -183 176 -20 44 -24 71 -26 178 -3 178 10 223 105
380 59 97 86 133 117 152 106 66 243 121 334 133 25 3 47 7 49 9 5 5 204 -3
232 -9z m-1180 -1213 c79 -20 181 -65 275 -122 132 -80 303 -139 515 -177 14
-3 59 -12 100 -20 41 -9 86 -18 100 -20 34 -6 68 -13 113 -25 43 -11 43 -14 0
-109 -133 -286 -438 -513 -820 -609 -121 -30 -138 -32 -303 -36 -271 -7 -470
48 -656 180 -127 91 -187 190 -191 315 -1 42 3 96 8 120 6 25 12 52 14 60 12
60 35 134 43 139 8 5 79 68 181 158 38 34 167 102 241 128 3 1 12 5 20 8 8 4
49 13 90 20 88 16 179 13 270 -10z"/>
</g>
</svg>
